{
    "asset" : {
        "generator" : "Khronos Blender glTF 2.0 I/O",
        "version" : "2.0"
    },
    "scene" : 0,
    "scenes" : [
        {
            "extras" : {
                "glTF2ExportSettings" : {
                    "export_apply" : 1,
                    "export_extras" : 1,
                    "export_format" : "GLTF_EMBEDDED",
                    "export_selected" : 0,
                    "export_tangents" : 1
                }
            },
            "name" : "Scene",
            "nodes" : [
                0,
                1,
                2,
                3,
                4,
                5
            ]
        }
    ],
    "nodes" : [
        {
            "name" : "Camera",
            "rotation" : [
                0.483536034822464,
                0.33687159419059753,
                -0.20870360732078552,
                0.7804827094078064
            ],
            "translation" : [
                7.358891487121582,
                4.958309173583984,
                6.925790786743164
            ]
        },
        {
            "mesh" : 0,
            "name" : "cranio",
            "rotation" : [
                0.5761353373527527,
                0.3930501639842987,
                -0.3477083444595337,
                0.6266407370567322
            ],
            "scale" : [
                1.644403100013733,
                1.644403100013733,
                1.644403100013733
            ],
            "translation" : [
                0.4565165936946869,
                1.735346794128418,
                0.09051849693059921
            ]
        },
        {
            "name" : "Area",
            "rotation" : [
                0.42061519622802734,
                0,
                -0.07124415785074234,
                0.9044374823570251
            ],
            "translation" : [
                1.3580652475357056,
                10.473833084106445,
                14.054173469543457
            ]
        },
        {
            "name" : "Sun",
            "rotation" : [
                0.0937277302145958,
                0,
                -0.3239658772945404,
                0.941414475440979
            ],
            "translation" : [
                2.764949321746826,
                2.93629789352417,
                1.2123684883117676
            ]
        },
        {
            "mesh" : 1,
            "name" : "Plane",
            "scale" : [
                3.3532841205596924,
                3.3532841205596924,
                3.3532841205596924
            ],
            "translation" : [
                0,
                -0.07183105498552322,
                0
            ]
        },
        {
            "mesh" : 2,
            "name" : "Plane.001",
            "scale" : [
                3.3532841205596924,
                3.3532841205596924,
                3.3532841205596924
            ]
        }
    ],
    "materials" : [
        {
            "name" : "Material",
            "pbrMetallicRoughness" : {
                "baseColorTexture" : {
                    "index" : 0,
                    "texCoord" : 0
                },
                "metallicFactor" : 0.4952380657196045,
                "roughnessFactor" : 0.19999998807907104
            }
        },
        {
            "name" : "Material.001",
            "pbrMetallicRoughness" : {
                "baseColorFactor" : [
                    0.8000000715255737,
                    0.005708620417863131,
                    0.020611237734556198,
                    1
                ],
                "metallicFactor" : 1,
                "roughnessFactor" : 0.41428571939468384
            }
        },
        {
            "name" : "Material.002",
            "pbrMetallicRoughness" : {
                "baseColorFactor" : [
                    0.8000000715255737,
                    0.005708620417863131,
                    0.020611237734556198,
                    1
                ],
                "metallicFactor" : 1,
                "roughnessFactor" : 0.41428571939468384
            }
        }
    ],
    "meshes" : [
        {
            "name" : "SkullModelExport.001",
            "primitives" : [
                {
                    "attributes" : {
                        "POSITION" : 0,
                        "NORMAL" : 1,
                        "TANGENT" : 2,
                        "TEXCOORD_0" : 3
                    },
                    "indices" : 4,
                    "material" : 0
                }
            ]
        },
        {
            "name" : "Plane.003",
            "primitives" : [
                {
                    "attributes" : {
                        "POSITION" : 5,
                        "NORMAL" : 6,
                        "TANGENT" : 7,
                        "TEXCOORD_0" : 8
                    },
                    "indices" : 9,
                    "material" : 1
                }
            ]
        },
        {
            "name" : "Plane.003",
            "primitives" : [
                {
                    "attributes" : {
                        "POSITION" : 10,
                        "NORMAL" : 11,
                        "TANGENT" : 12,
                        "TEXCOORD_0" : 13
                    },
                    "indices" : 14,
                    "material" : 2
                }
            ]
        }
    ],
    "textures" : [
        {
            "source" : 0
        }
    ],
    "images" : [
        {
            "bufferView" : 5,
            "mimeType" : "image/png",
            "name" : "Untitled.002"
        }
    ],
    "accessors" : [
        {
            "bufferView" : 0,
            "componentType" : 5126,
            "count" : 4206,
            "max" : [
                1.3192541599273682,
                1.5911451578140259,
                1.1819549798965454
            ],
            "min" : [
                -1.2719396352767944,
                -1.9634195566177368,
                -1.8419239521026611
            ],
            "type" : "VEC3"
        },
        {
            "bufferView" : 1,
            "componentType" : 5126,
            "count" : 4206,
            "type" : "VEC3"
        },
        {
            "bufferView" : 2,
            "componentType" : 5126,
            "count" : 4206,
            "type" : "VEC4"
        },
        {
            "bufferView" : 3,
            "componentType" : 5126,
            "count" : 4206,
            "type" : "VEC2"
        },
        {
            "bufferView" : 4,
            "componentType" : 5123,
            "count" : 4206,
            "type" : "SCALAR"
        },
        {
            "bufferView" : 6,
            "componentType" : 5126,
            "count" : 4,
            "max" : [
                1,
                0,
                1
            ],
            "min" : [
                -1,
                0,
                -1
            ],
            "type" : "VEC3"
        },
        {
            "bufferView" : 7,
            "componentType" : 5126,
            "count" : 4,
            "type" : "VEC3"
        },
        {
            "bufferView" : 8,
            "componentType" : 5126,
            "count" : 4,
            "type" : "VEC4"
        },
        {
            "bufferView" : 9,
            "componentType" : 5126,
            "count" : 4,
            "type" : "VEC2"
        },
        {
            "bufferView" : 10,
            "componentType" : 5123,
            "count" : 6,
            "type" : "SCALAR"
        },
        {
            "bufferView" : 11,
            "componentType" : 5126,
            "count" : 4,
            "max" : [
                1,
                0,
                1
            ],
            "min" : [
                -1,
                0,
                -1
            ],
            "type" : "VEC3"
        },
        {
            "bufferView" : 12,
            "componentType" : 5126,
            "count" : 4,
            "type" : "VEC3"
        },
        {
            "bufferView" : 13,
            "componentType" : 5126,
            "count" : 4,
            "type" : "VEC4"
        },
        {
            "bufferView" : 14,
            "componentType" : 5126,
            "count" : 4,
            "type" : "VEC2"
        },
        {
            "bufferView" : 15,
            "componentType" : 5123,
            "count" : 6,
            "type" : "SCALAR"
        }
    ],
    "bufferViews" : [
        {
            "buffer" : 0,
            "byteLength" : 50472,
            "byteOffset" : 0
        },
        {
            "buffer" : 0,
            "byteLength" : 50472,
            "byteOffset" : 50472
        },
        {
            "buffer" : 0,
            "byteLength" : 67296,
            "byteOffset" : 100944
        },
        {
            "buffer" : 0,
            "byteLength" : 33648,
            "byteOffset" : 168240
        },
        {
            "buffer" : 0,
            "byteLength" : 8412,
            "byteOffset" : 201888
        },
        {
            "buffer" : 0,
            "byteLength" : 183265,
            "byteOffset" : 210300
        },
        {
            "buffer" : 0,
            "byteLength" : 48,
            "byteOffset" : 393568
        },
        {
            "buffer" : 0,
            "byteLength" : 48,
            "byteOffset" : 393616
        },
        {
            "buffer" : 0,
            "byteLength" : 64,
            "byteOffset" : 393664
        },
        {
            "buffer" : 0,
            "byteLength" : 32,
            "byteOffset" : 393728
        },
        {
            "buffer" : 0,
            "byteLength" : 12,
            "byteOffset" : 393760
        },
        {
            "buffer" : 0,
            "byteLength" : 48,
            "byteOffset" : 393772
        },
        {
            "buffer" : 0,
            "byteLength" : 48,
            "byteOffset" : 393820
        },
        {
            "buffer" : 0,
            "byteLength" : 64,
            "byteOffset" : 393868
        },
        {
            "buffer" : 0,
            "byteLength" : 32,
            "byteOffset" : 393932
        },
        {
            "buffer" : 0,
            "byteLength" : 12,
            "byteOffset" : 393964
        }
    ],
    "buffers" : [
        {
            "byteLength" : 393976,
            "uri" : "data:application/octet-stream;base64,"
        }
    ]
}
